<svg width="229" height="221" viewBox="0 0 229 221" fill="none" xmlns="http://www.w3.org/2000/svg">
<g clip-path="url(#clip0)">
<path d="M64.4 0.999985C45 3.79998 28.3 15.8 20.3 32.5C17.3 38.9 16.7 41.4 16.2 49C14.7 76.4 28.6 95.3 53.1 99.1C57.2 99.7 63.3 100 66.7 99.7L72.9 99.1L71.4 103.2C68.4 111.8 70 118.7 77.1 127.1L81.2 132H70.2C37.8 132 10.9 145.9 2.89998 166.8C-0.300017 175.2 -0.200017 185.7 3.29998 193.2C12 212.3 39.6 223.1 71.8 220C91.8 218.1 106.3 212.3 117.5 201.9C128.7 191.4 133.6 178.6 132.8 161.6C132.2 148.1 129.3 143.3 111.8 126.7C89.8 105.8 89.5 104 105.4 87.9C113.9 79.2 116.4 75.9 120 68.7C123.9 60.9 124.4 59 124.8 51.5C125.1 45 124.8 41.7 123.2 36.3C121.1 29.4 113.9 18 108.6 13.1C107.2 11.7 106 10.3 106 9.79998C106 9.39998 110.3 8.99998 115.6 8.99998C124.9 8.99998 125.5 8.89998 131.1 5.39998C134.3 3.49998 137.2 1.49998 137.5 0.899985C138.2 -0.200015 72.1 -0.100015 64.4 0.999985ZM77.6 13C94.3 22.5 105.9 52.8 100.5 72.7C99 78.2 97.8 80.3 94 84.1C81.1 97 62.2 93.3 49.4 75.5C42.9 66.3 39.8 57.5 39.2 45.9C38.1 23.6 48.2 9.99998 65.9 9.99998C71.4 9.99998 73.4 10.5 77.6 13ZM91.3 143.4C104.1 149.6 115.5 164.1 116.7 175.5C118.8 195.3 102.1 208 74 208C51.6 208 35.8 200.4 27.9 185.8C24.9 180.2 24.5 178.6 24.5 172C24.5 165.6 24.9 163.8 27.2 159.8C30.6 154.2 35.7 150 44.3 146C53.7 141.5 61.8 140 74.5 140.3C84.3 140.5 86.1 140.8 91.3 143.4Z" fill="#DD4B39"/>
<path d="M183 76.5V92H168H153V99V106H168H183V121.5V137H190.5H198V121.5V106H213.5H229V103.6C229 102.3 228.7 99.2 228.4 96.6L227.7 92H212.9H198V76.5V61H190.5H183V76.5Z" fill="#DD4B39"/>
</g>
<defs>
<clipPath id="clip0">
<rect width="229" height="221" fill="white"/>
</clipPath>
</defs>
</svg>
