<svg width="512" height="512" viewBox="0 0 512 512" fill="none" xmlns="http://www.w3.org/2000/svg">
<g clip-path="url(#clip0)">
<path d="M36.3 1.50005C27.8 3.40005 20.6 7.40005 14 14.0001C7.29998 20.7001 3.39998 27.8001 1.49998 36.7001C-0.700024 46.9001 -0.700024 465.1 1.49998 475.3C3.39998 484.2 7.29998 491.3 14 498C20.7 504.7 27.8 508.6 36.7 510.5C46.9 512.7 465.1 512.7 475.3 510.5C484.2 508.6 491.3 504.7 498 498C504.7 491.3 508.6 484.2 510.5 475.3C512.7 465.1 512.7 46.9001 510.5 36.7001C508.6 27.8001 504.7 20.7001 498 14.0001C491.3 7.30005 484.2 3.40005 475.3 1.50005C465.4 -0.599945 45.9 -0.599945 36.3 1.50005ZM183.4 101.8C191.2 105.3 195.6 109.5 199.2 116.7C202 122.4 202.4 124.4 202.4 130.4C202.3 143 195.5 153.3 183.9 158.5C178.4 160.9 176.8 161.2 169.6 160.8C156.4 160.1 147.7 154.2 142.2 142.2C140.1 137.5 139.8 135.8 140.2 128.6C140.7 119.3 142.3 115.5 148.4 109.2C157.7 99.4 171.4 96.5 183.4 101.8ZM363 186C382.9 189.2 399 204.6 404.4 225.6C406.8 234.9 407.4 247.6 406.1 258.5C405.3 264.5 401.2 281.3 395.3 302.4C384.6 340.9 383.2 349.8 386.9 355.7C388.3 357.9 390 359.1 392.4 359.5C401.8 361.3 409.6 353.6 417.1 335.4C418.9 331 420.5 327.3 420.6 327.2C421.2 326.3 441 334.6 441 335.7C441 338.2 435.6 351.8 431.4 360C421.2 379.9 406.3 391.4 387.8 393.9C370.5 396.3 354.4 391.5 344.7 381.1C338.6 374.6 335.4 367.6 333.8 357.7C332 345.6 333.7 335.9 343.9 299.5C348.9 281.9 353.3 264.6 353.6 261C355.4 242.1 346.2 229.7 329.2 228.3C317.1 227.3 307.4 231.4 298.7 241C289.7 251 288.1 255.8 271.3 322.9C262.8 356.8 255.5 386.2 254.9 388.2L253.9 392H228.5C214.5 392 202.9 391.6 202.6 391.2C202.3 390.8 203.9 383.3 206.1 374.6C208.3 365.9 209.9 358.6 209.7 358.4C209.6 358.2 207.4 360.8 205 364.1C189 386.1 164.8 397.4 140.5 394.1C113.9 390.5 100.4 370.6 103.8 340.3C104.4 334.5 109.8 310.2 116.9 281.2C123.6 254.1 129 231.7 129 231.5C129 231.2 121.2 231 111.6 231C102 231 93.9 230.7 93.7 230.2C93.4 229.8 94.7 224.1 96.5 217.5C98.3 210.9 100.8 201.8 102 197.2L104.2 189H148.1C172.2 189 192 189.2 192 189.5C192 189.8 183.7 223 173.6 263.3C163.5 303.5 154.9 339.4 154.6 343C154.3 347 154.5 350.8 155.3 352.9C159.7 365.1 185.1 360.9 202.1 345.3C208.1 339.7 216.4 328.4 218.8 322.4C219.4 320.8 224.7 300.4 230.5 277C236.3 253.6 241.3 233.7 241.6 232.7C242.1 231.1 240.8 231 224.2 231C214.4 231 206.1 230.8 205.8 230.5C205.3 230 215.5 191.6 216.6 189.8C216.9 189.4 234.6 189 256.1 189C291.2 189 295 189.2 295 190.6C295 192 287.8 226 286.4 231.5C286.1 232.6 287.5 231 289.5 228C304.2 206 324.1 190.7 343.1 186.5C351 184.8 354.7 184.7 363 186Z" fill="#DC395F"/>
</g>
<defs>
<clipPath id="clip0">
<rect width="512" height="512" fill="white"/>
</clipPath>
</defs>
</svg>
