<svg width="1280" height="901" viewBox="0 0 1280 901" fill="none" xmlns="http://www.w3.org/2000/svg">
<g clip-path="url(#clip0)">
<path d="M537 1.00004C335.5 4.40004 199.4 12.9 146.5 25.2C126.9 29.7 106.7 38.8 90.3 50.3C78.7 58.5 59.1 78.1 50.7 90C43 101 33.3 120 29.6 131.5C16.2 173.3 6.49999 255.2 1.99999 365.5C-2.90001 487.3 3.69998 633.4 18.1 718.8C23.7 752.3 29 771 38.1 789.5C46 805.5 55.2 818.2 68.5 831.5C92.3 855.3 119.2 869.4 154 876.4C246.3 894.9 530.6 904.9 799.5 899C980.9 895 1099.8 886.6 1146.3 874.5C1188.9 863.5 1225.2 834.8 1247.3 795C1261.2 769.9 1270.2 728.6 1277.5 655.8L1280 631V448.5C1280 248.4 1280.3 259.1 1274 211.2C1263.8 134.2 1251.4 102.4 1218.5 69.4C1194.4 45.2 1169.1 31.8 1133.9 24.6C1079.1 13.4 969.9 6.10004 797 2.00004C737.5 0.600035 593.8 3.54068e-05 537 1.00004ZM683 353.9C774.6 406.6 849.5 450.1 849.5 450.5C849.5 451.3 517.1 643 515.8 643C515.3 643 515 556.4 515 450.5C515 344.6 515.3 258 515.8 258C516.2 258 591.4 301.1 683 353.9Z" fill="#FF0000"/>
</g>
<defs>
<clipPath id="clip0">
<rect width="1280" height="901" fill="white"/>
</clipPath>
</defs>
</svg>
